# xmcd
#
# Track frame offsets:
#	150
#	24399
#	42406
#	61327
#	79254
#	106371
#	121973
#	133651
#	154545
#	166628
#
# Disc length: 2616 seconds
#
# Revision: 0
# Processed by: cddbd v1.5.1PL2 Copyright (c) Steve Scherf et al.
# Submitted via: dBpowerAMP V4.0
#
DISCID=760a360a
DTITLE=The Mess Hall - Notes From A Ceiling
DYEAR=1900
DGENRE=
TTITLE0=Diddley
TTITLE1=Pills
TTITLE2=Call It Black
TTITLE3=Disco 1
TTITLE4=Skyline
TTITLE5=Shaky Ground
TTITLE6=Metal And Hair
TTITLE7=Disco 2
TTITLE8=Holes
TTITLE9=Red Eyes and Sunshine
EXTD=
EXTT0=
EXTT1=
EXTT2=
EXTT3=
EXTT4=
EXTT5=
EXTT6=
EXTT7=
EXTT8=
EXTT9=
PLAYORDER=
